<svg xmlns="http://www.w3.org/2000/svg" width="162" height="100" fill="none"><path fill="#9A9AB0" fill-rule="evenodd" d="M69.165 20v16.657L52.508 20v43.443H112.608L69.165 20ZM57.148 73.481c.56 0 1.01.132 1.35.392.34.258.562.617.666 1.072h1.692c-.16-.902-.562-1.605-1.206-2.105-.644-.5-1.47-.75-2.478-.75-.848 0-1.576.183-2.184.551a3.675 3.675 0 0 0-1.404 1.536c-.328.657-.492 1.412-.492 2.268 0 .857.164 1.61.492 2.264.328.651.796 1.16 1.404 1.522.608.365 1.336.547 2.184.547 1.008 0 1.834-.244 2.478-.733.644-.487 1.046-1.163 1.206-2.028h-1.692a1.688 1.688 0 0 1-.666 1.016c-.34.243-.79.364-1.35.364-.776 0-1.384-.262-1.824-.785-.44-.524-.66-1.245-.66-2.166 0-.92.22-1.644.66-2.172.44-.528 1.048-.793 1.824-.793Zm13.194 5.125c-.476.528-1.114.791-1.914.791-.8 0-1.44-.264-1.92-.791s-.72-1.252-.72-2.172c0-.92.24-1.644.72-2.172.48-.528 1.12-.793 1.92-.793.8 0 1.438.265 1.914.793s.714 1.251.714 2.171c0 .92-.238 1.645-.714 2.172Zm.282-5.965c-.632-.368-1.364-.552-2.196-.552-.84 0-1.574.184-2.202.552a3.908 3.908 0 0 0-1.476 1.53c-.356.653-.534 1.407-.534 2.262 0 .857.178 1.61.534 2.262a3.9 3.9 0 0 0 1.476 1.53c.628.369 1.362.553 2.202.553.832 0 1.564-.184 2.196-.553a3.847 3.847 0 0 0 1.476-1.53c.352-.651.528-1.404.528-2.261 0-.855-.176-1.61-.528-2.263a3.853 3.853 0 0 0-1.476-1.53Zm7.464-.407 2.677 5.328 2.639-5.328h1.824v8.4h-1.536v-5.796l-2.34 4.596h-1.211L77.8 74.837v5.796h-1.535v-8.4h1.823ZM93.31 75.78c-.236.235-.622.354-1.158.354h-1.477v-2.653h1.477c.536 0 .922.118 1.158.355.235.236.354.561.354.977 0 .408-.119.731-.354.967Zm.605-3.21c-.439-.225-.996-.337-1.667-.337H89.14v8.401h1.535v-3.252h1.573c.688 0 1.251-.119 1.692-.355.439-.235.764-.548.972-.935.208-.388.312-.814.312-1.279 0-.487-.108-.928-.324-1.319-.216-.393-.544-.7-.985-.925Zm7.273 1.428-1.212 3.492h2.436l-1.224-3.492Zm-3.924 6.636 3.071-8.4h1.729l3.072 8.4h-1.633l-.672-1.945h-3.275l-.684 1.945h-1.608Zm16.715-2.485-3.948-5.916h-1.535v8.4h1.535V74.73l3.948 5.904h1.536v-8.4h-1.536v5.916Zm8.4-2.04 1.849-3.876h1.716l-2.808 5.412v2.988H121.6v-2.988l-2.82-5.412h1.74l1.859 3.876ZM37 80.635l3.073-8.401h1.728l3.072 8.4h-1.632l-.672-1.944h-3.276l-.684 1.945H37Zm5.148-3.144-1.224-3.492-1.212 3.492h2.436Z" clip-rule="evenodd"/></svg>