<svg xmlns="http://www.w3.org/2000/svg" width="162" height="100" fill="none"><path fill="#9A9AB0" fill-rule="evenodd" d="M41.916 39.906a8.469 8.469 0 1 0 16.938 0 8.469 8.469 0 0 0-8.469-8.469 8.468 8.468 0 0 0-8.469 8.469ZM10 50.146C10 33.497 23.496 20 40.145 20S70.29 33.497 70.29 50.146c0 16.648-13.496 30.145-30.145 30.145S10 66.794 10 50.146Zm72.782-5.603c-1.138 0-2.115-.244-2.93-.733a4.884 4.884 0 0 1-1.884-2.045c-.44-.874-.66-1.886-.66-3.035 0-1.148.22-2.163.66-3.043a4.932 4.932 0 0 1 1.884-2.061c.815-.493 1.792-.74 2.93-.74 1.353 0 2.46.335 3.324 1.006.866.67 1.405 1.613 1.62 2.826h-2.27c-.141-.612-.437-1.093-.895-1.441-.456-.35-1.06-.524-1.811-.524-1.041 0-1.857.354-2.447 1.063-.591.708-.886 1.68-.886 2.914 0 1.235.295 2.204.886 2.907.59.703 1.406 1.054 2.447 1.054.75 0 1.355-.163 1.81-.491.459-.327.755-.781.896-1.361h2.27c-.215 1.16-.754 2.067-1.62 2.72-.863.656-1.971.984-3.324.984Zm10.562-6.587c-.547 0-1.016.202-1.408.604-.393.404-.588 1.002-.588 1.795 0 .796.195 1.394.588 1.797.392.401.855.602 1.393.602.536 0 1.003-.2 1.4-.602.397-.404.596-1.002.596-1.797 0-.793-.199-1.391-.596-1.794-.397-.403-.858-.605-1.385-.605Zm-.015 6.586c-.774 0-1.468-.177-2.085-.53a3.893 3.893 0 0 1-1.466-1.474c-.36-.628-.539-1.355-.539-2.182s.182-1.553.547-2.181a3.959 3.959 0 0 1 1.473-1.473c.617-.355 1.313-.532 2.085-.532.763 0 1.452.176 2.07.532a3.893 3.893 0 0 1 1.464 1.473c.36.628.54 1.355.54 2.18 0 .828-.18 1.555-.54 2.183a3.888 3.888 0 0 1-1.472 1.474 4.132 4.132 0 0 1-2.077.53Zm15.81-8.372c-.58 0-1.113.128-1.602.386a3.114 3.114 0 0 0-1.168 1.047c-.514-.955-1.389-1.433-2.624-1.433-.558 0-1.049.115-1.473.346a2.838 2.838 0 0 0-1.023.926l-.176-1.08h-1.82v7.987h2.061v-4.122c0-.73.169-1.298.507-1.706.339-.408.781-.612 1.329-.612.557 0 .97.182 1.239.547.269.365.402.89.402 1.578v4.315h2.062v-4.122c0-.73.169-1.298.507-1.706.338-.408.786-.612 1.344-.612.547 0 .953.182 1.216.547.263.365.395.89.395 1.578v4.315h2.06V39.84c0-1.202-.279-2.115-.837-2.737-.558-.622-1.358-.934-2.399-.934Zm9.5 6.57c.654 0 1.196-.22 1.626-.66.43-.44.645-1.01.645-1.708s-.215-1.272-.645-1.723c-.43-.45-.972-.676-1.626-.676-.666 0-1.211.223-1.635.668-.424.446-.635 1.017-.635 1.715 0 .698.211 1.27.635 1.715.424.445.969.668 1.635.668Zm2.447-6.023a3.93 3.93 0 0 1 1.401 1.497c.343.634.515 1.353.515 2.158 0 .805-.172 1.521-.515 2.15a3.888 3.888 0 0 1-1.401 1.481c-.591.36-1.261.54-2.012.54-.602 0-1.127-.113-1.579-.339a2.843 2.843 0 0 1-1.094-.95v4.637h-2.061V36.363h1.835l.226 1.143a3.685 3.685 0 0 1 1.022-.934c.424-.268.975-.402 1.651-.402.751 0 1.421.182 2.012.547Zm8.349 5.636c-.328.386-.786.58-1.377.58-.387 0-.697-.087-.934-.258-.236-.172-.354-.413-.354-.724 0-.29.118-.535.354-.733.237-.199.628-.299 1.176-.299h1.755c-.086.57-.293 1.048-.62 1.434Zm-1.36-2.721c-1.16 0-2.03.23-2.609.692-.58.462-.87 1.063-.87 1.803 0 .44.108.842.322 1.207.215.365.542.658.983.878.439.22 1.004.33 1.69.33.665 0 1.21-.14 1.635-.419a2.97 2.97 0 0 0 .99-1.063l.193 1.29h1.755v-4.912c0-1.04-.328-1.846-.982-2.416-.655-.567-1.552-.852-2.689-.852-.665 0-1.267.115-1.803.346a3.295 3.295 0 0 0-1.313.99 2.809 2.809 0 0 0-.588 1.514h2.013c.075-.387.269-.68.58-.878a1.987 1.987 0 0 1 1.095-.298c.461 0 .848.13 1.159.386.312.259.467.66.467 1.209v.193h-2.028Zm13.879.21v4.507h-2.062v-4.315c0-.687-.139-1.213-.417-1.578-.28-.365-.715-.547-1.305-.547-.579 0-1.055.204-1.425.611-.37.41-.556.977-.556 1.707v4.122h-2.06v-7.986h1.819l.161 1.352a2.81 2.81 0 0 1 1.071-1.127c.466-.279 1.016-.418 1.65-.418.987 0 1.755.311 2.303.933.547.623.821 1.536.821 2.738Zm4.54 3.976-1.852 4.074h2.19l5.072-11.53h-2.19l-2.334 5.62-2.239-5.62h-2.238l3.108 7.456h.483Zm-69.476 8.581h8.647v1.658h-3.302v9.613h-2.06v-9.613h-3.285V52.4Zm10.498 6.489c.107-.578.354-1.012.74-1.295a2.194 2.194 0 0 1 1.337-.428c.526 0 .966.157 1.32.467.354.313.547.73.58 1.256h-3.977Zm4.154-2.881c-.6-.344-1.294-.515-2.077-.515-.838 0-1.564.179-2.18.539a3.786 3.786 0 0 0-1.45 1.505c-.35.645-.524 1.379-.524 2.206 0 .816.177 1.535.531 2.158a3.738 3.738 0 0 0 1.465 1.449c.623.344 1.337.516 2.142.516.644 0 1.22-.12 1.731-.356.51-.236.938-.56 1.288-.973.35-.414.598-.873.748-1.377h-2.093a1.742 1.742 0 0 1-.635.733c-.286.187-.637.28-1.055.28-.559 0-1.033-.177-1.425-.53-.392-.354-.609-.842-.652-1.465h6.07c.01-.141.02-.273.024-.402.005-.13.008-.252.008-.371 0-.731-.17-1.393-.508-1.99a3.698 3.698 0 0 0-1.408-1.407Zm6.585 2.512 2.013-2.834h2.222l-2.914 3.992 2.914 3.994h-2.222l-2.013-2.834-2.028 2.834h-2.206l2.898-3.994-2.898-3.992h2.206l2.028 2.834Zm8.405-4.977h-1.819l-.242 2.143h-1.369v1.722h1.369v3.479c0 1.041.252 1.765.756 2.172.505.408 1.176.613 2.013.613h1.401v-1.756h-.998c-.408 0-.695-.072-.861-.217-.167-.144-.25-.41-.25-.797v-3.494h2.157v-1.722h-2.157v-2.143Zm7.808-1.143h2.062v9.66h4.991v1.611h-7.053V52.4Zm13.703 9.073c-.397.404-.864.605-1.4.605-.537 0-1.001-.201-1.393-.605-.393-.402-.588-1-.588-1.795 0-.793.195-1.393.588-1.795a1.897 1.897 0 0 1 1.408-.603c.527 0 .988.2 1.385.603.397.402.596 1.002.596 1.795 0 .795-.199 1.393-.596 1.795Zm.685-5.45a4.087 4.087 0 0 0-2.07-.53c-.772 0-1.468.177-2.085.53a3.956 3.956 0 0 0-1.473 1.473c-.365.629-.547 1.356-.547 2.182 0 .828.179 1.555.539 2.182a3.886 3.886 0 0 0 1.466 1.474c.617.354 1.311.532 2.085.532.761 0 1.454-.178 2.077-.532a3.88 3.88 0 0 0 1.472-1.474c.36-.627.54-1.354.54-2.182 0-.826-.18-1.553-.54-2.182a3.89 3.89 0 0 0-1.464-1.472Zm6.721 3.688c.419 0 .765-.113 1.039-.338.273-.227.41-.549.41-.967 0-.418-.137-.74-.41-.967-.274-.224-.62-.337-1.039-.337-.44 0-.794.113-1.063.337-.268.227-.402.55-.402.967 0 .418.134.74.402.967.269.225.623.338 1.063.338Zm.161 3.896a13.22 13.22 0 0 1-1.224-.144c-.311.172-.534.36-.668.562a1.13 1.13 0 0 0-.201.63c0 .396.185.693.555.892.371.2.824.3 1.361.3.515 0 .934-.107 1.256-.316.321-.209.483-.492.483-.846a.946.946 0 0 0-.314-.724c-.21-.193-.626-.31-1.248-.354Zm-1.916-7.728c.483-.258 1.068-.387 1.755-.387.451 0 .869.065 1.256.193h3.027v1.256l-1.369.096c.215.408.322.86.322 1.354 0 .537-.129 1.025-.386 1.464-.257.44-.63.79-1.12 1.047-.488.258-1.065.387-1.73.387-.387 0-.746-.043-1.079-.129l-.596.596c.183.096.43.176.741.24.311.065.816.13 1.514.193 1.063.098 1.835.35 2.318.758.483.408.725.971.725 1.69 0 .472-.129.922-.387 1.345-.258.424-.655.768-1.191 1.03-.537.263-1.224.394-2.061.394-1.138 0-2.055-.21-2.754-.635-.697-.423-1.045-1.06-1.045-1.908 0-.719.348-1.342 1.045-1.867a3.638 3.638 0 0 1-.555-.307 2.95 2.95 0 0 1-.41-.337v-.372l1.4-1.48c-.622-.549-.934-1.25-.934-2.109 0-.538.132-1.026.395-1.465a2.802 2.802 0 0 1 1.119-1.047Zm12.446 5.594c-.397.404-.864.605-1.4.605-.537 0-1.001-.201-1.393-.605-.393-.402-.588-1-.588-1.795 0-.793.195-1.393.588-1.795a1.897 1.897 0 0 1 1.408-.603c.527 0 .988.2 1.385.603.397.402.596 1.002.596 1.795 0 .795-.199 1.393-.596 1.795Zm.685-5.45a4.087 4.087 0 0 0-2.07-.53c-.772 0-1.468.177-2.085.53a3.956 3.956 0 0 0-1.473 1.473c-.365.629-.547 1.356-.547 2.182 0 .828.179 1.555.539 2.182a3.886 3.886 0 0 0 1.466 1.474c.617.354 1.311.532 2.085.532.761 0 1.454-.178 2.077-.532a3.88 3.88 0 0 0 1.472-1.474c.36-.627.54-1.354.54-2.182 0-.826-.18-1.553-.54-2.182a3.89 3.89 0 0 0-1.464-1.472Z" clip-rule="evenodd"/></svg>