<svg xmlns="http://www.w3.org/2000/svg" width="162" height="100" fill="none"><path fill="#9A9AB0" fill-rule="evenodd" d="M50.482 33.398a6.563 6.563 0 0 1 2.007 1.157c.578.53 1.048 1.193 1.41 1.988.36.796.542 1.712.542 2.748v13.594c0 1.085-.181 2.013-.542 2.784-.362.772-.832 1.41-1.41 1.916a6.195 6.195 0 0 1-2.007 1.194 6.536 6.536 0 0 1-2.223.397 6.537 6.537 0 0 1-2.224-.397 5.785 5.785 0 0 1-1.97-1.194 5.499 5.499 0 0 1-1.446-1.916c-.362-.771-.543-1.699-.543-2.784V39.291c0-1.036.18-1.952.543-2.748a5.793 5.793 0 0 1 1.446-1.988 6.11 6.11 0 0 1 1.97-1.157A6.515 6.515 0 0 1 48.259 33c.747 0 1.488.133 2.223.398ZM38.93 53.21v-1.59h-3.688v1.265c0 .507-.072.93-.217 1.265-.144.338-.325.603-.542.796a2.312 2.312 0 0 1-.778.415 2.655 2.655 0 0 1-.777.127c-.844 0-1.428-.253-1.753-.759-.326-.506-.489-1.132-.489-1.88V39.69c0-.868.151-1.585.452-2.152.302-.565.91-.849 1.826-.849.699 0 1.253.265 1.663.795.41.531.615 1.157.615 1.88v1.23h3.688v-1.446a6.66 6.66 0 0 0-.452-2.477 6.054 6.054 0 0 0-1.247-1.97c-1.085-1.134-2.495-1.7-4.231-1.7-.892 0-1.705.15-2.44.452a5.727 5.727 0 0 0-1.898 1.247 5.556 5.556 0 0 0-1.23 1.88A6.28 6.28 0 0 0 27 38.93v14.172c0 1.181.186 2.151.56 2.911.373.76.85 1.38 1.428 1.861.579.482 1.23.82 1.953 1.013a8.284 8.284 0 0 0 2.133.29c.819 0 1.585-.163 2.295-.489a6.028 6.028 0 0 0 1.863-1.32 6.251 6.251 0 0 0 1.247-1.898c.301-.71.452-1.464.452-2.26Zm49.893-18.185a5.504 5.504 0 0 1 1.301 2.368c.242.904.361 2.128.361 3.67 0 1.157-.066 2.133-.197 2.929a6.122 6.122 0 0 1-.85 2.24 5.371 5.371 0 0 1-2.025 1.972c-.844.469-1.953.705-3.326.705h-1.88v10.05H78.52V33.217h5.531c1.013 0 1.904.133 2.676.398.771.265 1.47.736 2.097 1.41ZM66.408 46.848h-.073L61.6 33.217h-3.543v25.742h3.688V43.304h.072l3.617 11.064h1.843l3.651-11.064H71v15.655h3.688V33.217h-3.578l-4.701 13.631Zm-31.066 20.01a1.2 1.2 0 0 0 .462-.51 1.75 1.75 0 0 0 .166-.792c0-.306-.055-.57-.166-.791a1.204 1.204 0 0 0-.462-.509 1.328 1.328 0 0 0-.695-.178c-.265 0-.498.06-.698.178a1.179 1.179 0 0 0-.462.509 1.786 1.786 0 0 0-.162.791c0 .307.054.57.162.792.109.223.263.392.462.51.2.117.433.177.698.177.266 0 .498-.06.695-.177Zm-.695-3.305c.384 0 .72.084 1.007.254.289.17.513.404.673.706.161.301.241.649.241 1.043 0 .396-.08.743-.241 1.045-.16.3-.384.535-.673.704a1.93 1.93 0 0 1-1.007.256 1.94 1.94 0 0 1-1.008-.256 1.78 1.78 0 0 1-.675-.704 2.173 2.173 0 0 1-.243-1.045c0-.394.081-.742.243-1.043.162-.302.387-.536.675-.706.288-.17.625-.254 1.008-.254Zm22.81 3.305a1.2 1.2 0 0 0 .462-.51 1.75 1.75 0 0 0 .167-.792c0-.306-.056-.57-.167-.791a1.204 1.204 0 0 0-.462-.509 1.328 1.328 0 0 0-.695-.178c-.265 0-.498.06-.698.178a1.191 1.191 0 0 0-.462.509 1.786 1.786 0 0 0-.162.791c0 .307.054.57.162.792.11.223.264.392.462.51.2.117.433.177.698.177.266 0 .498-.06.695-.177Zm-.695-3.305c.384 0 .72.084 1.007.254.29.17.513.404.673.706.161.301.242.649.242 1.043 0 .396-.08.743-.242 1.045-.16.3-.384.535-.673.704a1.93 1.93 0 0 1-1.007.256c-.383 0-.72-.085-1.007-.256a1.776 1.776 0 0 1-.676-.704 2.173 2.173 0 0 1-.243-1.045c0-.394.081-.742.243-1.043.162-.302.387-.536.676-.706.287-.17.624-.254 1.007-.254Zm40.274 2.291h1.052c-.033.362-.148.651-.34.87-.194.217-.483.326-.867.326-.38 0-.684-.129-.913-.388-.229-.258-.343-.618-.343-1.079 0-.46.115-.823.35-1.085.231-.262.55-.393.956-.393.273 0 .497.06.67.178a.85.85 0 0 1 .348.487h.664a1.473 1.473 0 0 0-.575-.887c-.296-.214-.665-.32-1.107-.32-.392 0-.73.086-1.016.256-.286.173-.506.41-.66.712a2.251 2.251 0 0 0-.234 1.046c0 .4.076.748.227 1.048.151.297.363.531.637.696.273.167.591.25.957.25.313 0 .57-.056.764-.167.196-.11.358-.268.488-.47l.05.57h.536v-2.103h-1.644v.453Zm12.396.693-1.943-2.918h-.587v3.876h.587v-2.919l1.943 2.919h.587v-3.876h-.587v2.918Zm-4.955.958h.587V63.62h-.587v3.875Zm9.843 0h-2.464v-3.876h2.464v.477h-1.877v1.206h1.711v.464h-1.711v1.251h1.877v.478Zm6.661-2.215h-1.877v-1.66h-.587v3.875h.587V65.76h1.877v1.734h.587V63.62h-.587v1.66Zm4.887 2.215h-2.464v-3.876h2.464v.477h-1.877v1.206h1.711v.464h-1.711v1.251h1.877v.478Zm3.05-2.005h-.714v-1.378h.709c.274 0 .47.062.592.186a.677.677 0 0 1 .184.496.7.7 0 0 1-.186.503c-.124.129-.318.193-.585.193Zm1.183-.06c.128-.196.191-.414.191-.653 0-.216-.049-.41-.145-.585a1.028 1.028 0 0 0-.439-.418c-.198-.103-.45-.154-.756-.154h-1.335v3.875h.587v-1.562h.693l.752 1.562h.682l-.826-1.645c.269-.084.468-.224.596-.42Zm4.397 2.064h-2.463V63.62h2.463v.476h-1.877v1.206h1.711v.464h-1.711v1.251h1.877v.478Zm-34.051-3.874h.587v3.41h1.761v.465h-2.348v-3.876Zm-38.054 2.579-1.312-2.58h-.693v3.876h.587v-2.857l1.19 2.303h.454l1.185-2.308v2.862h.587V63.62h-.69l-1.308 2.579Zm5.166-.747c.277 0 .476-.061.595-.18a.667.667 0 0 0 .18-.49c0-.215-.061-.381-.18-.501-.12-.12-.318-.18-.595-.18h-.742v1.35h.742Zm.028-1.832c.302 0 .553.049.753.15.198.104.347.24.445.417.098.175.147.373.147.595 0 .21-.047.402-.141.579a1.012 1.012 0 0 1-.44.417c-.2.102-.455.155-.764.155h-.77v1.562h-.587V63.62h1.357Zm3.398 2.461.625-1.765.626 1.765h-1.25Zm.31-2.462-1.428 3.875h.62l.331-.946h1.584l.333.946h.62l-1.418-3.875h-.643Zm4.239 0 1.944 2.918v-2.918h.587v3.876h-.587l-1.944-2.919v2.919h-.586v-3.876h.586Zm5.648 1.87-.913-1.87h-.664l1.285 2.446v1.43h.586v-1.43l1.272-2.445h-.657l-.91 1.87Zm6.46-1.394h-1.146v-.476h2.874v.476h-1.14v3.4h-.588v-3.4Zm3.775 1.986.626-1.765.626 1.765h-1.252Zm.31-2.462L90.3 67.494h.62l.332-.946h1.583l.333.946h.62L92.37 63.62h-.642Zm-48.119 1.87h.716c.266 0 .46-.063.584-.192a.696.696 0 0 0 .185-.503.676.676 0 0 0-.183-.496c-.121-.124-.318-.186-.592-.186h-.71v1.378Zm2.089-.712c0 .239-.064.457-.192.653s-.326.336-.595.42l.826 1.645h-.681l-.754-1.562h-.693v1.562h-.586V63.62h1.334c.307 0 .558.05.756.154.197.104.344.242.44.418.096.176.145.369.145.585Zm5.911-.698c.285 0 .512.066.681.2.17.132.28.31.333.535h.652c-.076-.398-.259-.708-.548-.93-.287-.22-.658-.33-1.113-.33-.382 0-.714.084-.993.253a1.696 1.696 0 0 0-.645.706c-.15.3-.226.65-.226 1.048 0 .396.075.744.226 1.044.152.3.366.535.645.703.28.167.611.252.993.252.455 0 .826-.109 1.113-.326.29-.218.472-.517.548-.902h-.652a.87.87 0 0 1-.333.515c-.169.126-.396.188-.68.188-.388 0-.695-.132-.919-.394-.225-.26-.337-.622-.337-1.08 0-.46.112-.824.337-1.087.224-.264.531-.395.918-.395ZM40.63 66.044c0 .34-.08.588-.243.746-.162.16-.38.24-.653.24-.278 0-.497-.08-.659-.24-.162-.158-.244-.407-.244-.746V63.62h-.587v2.42c0 .347.067.632.197.857.13.225.308.392.531.501.223.11.473.164.751.164.273 0 .523-.055.75-.164.226-.109.407-.276.543-.5.135-.226.201-.51.201-.859V63.62h-.587v2.425Zm55.716-32.827-5.75 25.742h3.687l1.086-5.53h5.026l1.084 5.53h3.687l-5.748-25.742h-3.072Zm20.029 0h3.688V58.96h-3.471l-5.64-15.474h-.073V58.96h-3.687V33.217h3.543l5.568 15.511h.072v-15.51Zm15.655 0-2.965 10.231h-.072l-2.965-10.23h-3.904l5.06 14.858V58.96h3.688V48.076l5.062-14.859h-3.904ZM29.1 63.62l.913 1.87.909-1.87h.657l-1.272 2.445v1.43h-.586v-1.43l-1.285-2.445h.664Z" clip-rule="evenodd"/></svg>