<svg xmlns="http://www.w3.org/2000/svg" width="162" height="100" fill="none"><path fill="#9A9AB0" fill-rule="evenodd" d="M67.203 30 55.879 49.612l11.324 19.611h22.644l11.324-19.611L89.847 30H67.203Zm1.032 19.612 5.146-8.912h10.288l5.146 8.912-5.146 8.911H73.381l-5.146-8.911ZM18 41.441v2.203h2.708v14.139h2.342v-14.14h2.709v-2.202H18Zm16 16.342h-6.979V41.44H34v2.203h-4.637v4.798h4.039v2.203h-4.039v4.798H34v2.341Zm9.365-16.342h-2.48l-1.79 4.843-1.767-4.843h-2.48l3.054 7.78-3.307 8.563h2.48l2.02-5.51 2.043 5.51h2.479l-3.375-8.562 3.123-7.781Zm3.074 2.203H43.73V41.44h7.76v2.203h-2.709v14.14h-2.342v-14.14Zm62.502-2.203h-2.342v16.343h6.979v-2.341h-4.637V41.44Zm21.588.114c.466.17.89.413 1.273.734.367.337.666.758.895 1.263.23.505.345 1.087.345 1.744v.827H130.7v-.827c0-.566-.156-.983-.47-1.25a1.664 1.664 0 0 0-1.114-.403c-.427 0-.798.134-1.113.402-.314.268-.471.685-.471 1.251v8.631c0 .566.157.983.471 1.251.315.268.686.402 1.113.402.428 0 .799-.134 1.114-.402.314-.268.47-.685.47-1.25v-3.076h-1.859v-2.067h4.201v5.142c0 .688-.115 1.278-.345 1.767a3.627 3.627 0 0 1-.895 1.217 3.93 3.93 0 0 1-1.273.757 4.125 4.125 0 0 1-1.413.253c-.474 0-.945-.084-1.412-.253a3.681 3.681 0 0 1-1.25-.757 3.49 3.49 0 0 1-.918-1.217c-.23-.489-.345-1.079-.345-1.767v-8.63c0-.658.115-1.24.345-1.745.229-.505.536-.926.918-1.263a3.91 3.91 0 0 1 1.25-.734 4.146 4.146 0 0 1 1.412-.252c.475 0 .946.084 1.413.252Zm-9.836 12.372c0 .566-.156.983-.471 1.25a1.655 1.655 0 0 1-1.113.403c-.428 0-.799-.133-1.113-.402-.315-.268-.471-.685-.471-1.251v-8.631c0-.565.156-.982.471-1.251a1.664 1.664 0 0 1 1.113-.401c.428 0 .799.134 1.113.4.315.27.471.687.471 1.252v8.63Zm1.102-11.638a4.183 4.183 0 0 0-1.274-.734 4.142 4.142 0 0 0-1.412-.252c-.475 0-.945.084-1.412.252a3.889 3.889 0 0 0-1.25.734c-.383.337-.69.758-.918 1.263-.231.505-.346 1.087-.346 1.744v8.63c0 .689.115 1.279.346 1.769.228.49.535.895.918 1.216.367.337.783.589 1.25.757a4.12 4.12 0 0 0 1.412.253 4.12 4.12 0 0 0 1.412-.253c.467-.168.891-.42 1.274-.757.367-.321.666-.726.894-1.216.231-.49.346-1.08.346-1.768v-8.631c0-.657-.115-1.24-.346-1.744a3.828 3.828 0 0 0-.894-1.263Zm18.443 12.889c.314-.268.471-.685.471-1.251v-8.631c0-.565-.157-.982-.471-1.251a1.666 1.666 0 0 0-1.113-.401c-.428 0-.799.134-1.113.4-.315.27-.471.687-.471 1.252v8.63c0 .567.156.984.471 1.252.314.269.685.402 1.113.402.427 0 .799-.133 1.113-.402Zm1.573-12.89c.366.338.666.759.893 1.264.232.505.346 1.087.346 1.744v8.63c0 .689-.114 1.279-.346 1.769-.227.49-.527.895-.893 1.216a4.11 4.11 0 0 1-2.686 1.01c-.476 0-.945-.084-1.412-.253a3.643 3.643 0 0 1-1.25-.757 3.448 3.448 0 0 1-.918-1.216c-.232-.49-.346-1.08-.346-1.768v-8.631c0-.657.114-1.24.346-1.744a3.64 3.64 0 0 1 .918-1.263 3.867 3.867 0 0 1 1.25-.734 4.138 4.138 0 0 1 1.412-.252c.475 0 .945.084 1.411.252.468.169.891.413 1.275.734Z" clip-rule="evenodd"/></svg>