<svg xmlns="http://www.w3.org/2000/svg" width="162" height="100" fill="none"><path fill="#9A9AB0" fill-rule="evenodd" d="M35.891 18 14 39.892l8.484 8.482 13.408-13.407 13.407 13.407 8.484-8.482L35.891 18Zm-21.89 43.1 21.89 21.892L57.782 61.1l-21.89-21.89L14 61.1Zm68.449-7.22c-.168-.61-.25-1.32-.25-2.127v-8.725c0-.808.082-1.513.25-2.116.165-.601.475-1.065.926-1.39.453-.325 1.105-.488 1.962-.488.84 0 1.482.163 1.925.488.444.325.748.789.915 1.39.168.603.25 1.308.25 2.116v8.725c0 .808-.082 1.518-.25 2.127-.166.61-.471 1.086-.915 1.427-.444.34-1.086.51-1.925.51-.856 0-1.51-.17-1.962-.51-.45-.341-.76-.817-.927-1.427Zm5.858 2.627c.714-.507 1.217-1.2 1.51-2.08.294-.88.442-1.898.442-3.055V43.36c0-1.172-.153-2.191-.454-3.055-.3-.864-.811-1.533-1.532-2.01-.722-.475-1.7-.712-2.936-.712-1.252 0-2.24.237-2.96.713-.722.476-1.237 1.145-1.546 2.009-.308.864-.462 1.883-.462 3.055v7.988c0 1.157.144 2.183.438 3.078.293.895.8 1.593 1.522 2.093.722.499 1.724.748 3.008.748 1.268 0 2.258-.253 2.97-.761ZM74.33 37.584c1.158 0 2.065.222 2.722.666.658.443 1.13 1.073 1.415 1.89.285.816.428 1.787.428 2.912v1.165h-1.712V43.1c0-.84-.068-1.562-.202-2.164-.135-.602-.408-1.07-.82-1.403-.413-.333-1.014-.5-1.807-.5-.871 0-1.526.18-1.961.536-.437.357-.73.86-.88 1.51-.15.65-.226 1.402-.226 2.258v8.202c0 .95.091 1.743.274 2.377.181.634.495 1.109.939 1.427.444.316 1.062.474 1.854.474.808 0 1.415-.173 1.819-.522.404-.35.673-.836.808-1.462.134-.626.202-1.36.202-2.2v-1.26h1.712v1.142c0 1.126-.131 2.12-.393 2.983-.261.864-.721 1.542-1.379 2.033-.657.49-1.589.737-2.793.737-1.299 0-2.301-.27-3.007-.808-.706-.54-1.193-1.264-1.462-2.176-.27-.911-.404-1.921-.404-3.031v-7.654c0-1.19.138-2.235.416-3.138.277-.904.773-1.608 1.486-2.116.713-.507 1.703-.761 2.971-.761Zm53.914 25.777h1.734v-.335h-1.321v-.88h1.204v-.328h-1.204v-.85h1.321v-.335h-1.734v2.728Zm-3.074-2.728 1.368 2.054v-2.054h.413v2.728h-.413l-1.368-2.054v2.054h-.413v-2.728h.413Zm-1.707 2.729h-.413v-2.728h.413v2.728Zm9.883-1.56h1.321v-1.168h.413v2.728h-.413v-1.22h-1.321v1.22h-.413v-2.728h.413v1.169Zm3.027 1.56h1.734v-.336h-1.321v-.88h1.204v-.328h-1.204v-.85h1.321v-.335h-1.734v2.728Zm3.379-1.412h.503c.187 0 .324-.045.411-.136a.491.491 0 0 0 .131-.354.474.474 0 0 0-.129-.349c-.086-.088-.225-.13-.417-.13h-.499v.97Zm1.47-.502a.823.823 0 0 1-.135.46.743.743 0 0 1-.419.296l.581 1.157h-.479l-.531-1.099h-.487v1.1h-.413v-2.728h.939c.216 0 .393.036.533.108a.724.724 0 0 1 .309.295c.068.123.102.26.102.411Zm1.227 1.913h1.733v-.335h-1.321v-.88h1.204v-.328h-1.204v-.85h1.321v-.335h-1.733v2.728Zm-44.797-6.33-3.638-15.31-.38 15.31h-1.498l.476-19.256h1.806l3.804 16.712 3.875-16.712h1.807l.475 19.256h-1.498l-.38-15.334-3.684 15.334h-1.165Zm10.793-10.46v-7.442h2.329c.857 0 1.518.107 1.985.321.467.214.796.595.987 1.141.19.546.285 1.312.285 2.294 0 .92-.11 1.65-.332 2.187-.223.54-.575.924-1.059 1.153-.483.23-1.113.345-1.889.345h-2.306Zm5.479.665a3.843 3.843 0 0 0 1.451-1.843 6.98 6.98 0 0 0 .439-2.508c0-1.03-.139-1.925-.416-2.686a3.47 3.47 0 0 0-1.414-1.783c-.666-.428-1.577-.642-2.734-.642h-4.613V57.03h1.808v-9.105h2.828c1.094 0 1.978-.23 2.651-.689Zm6.265-7.062-2.044 10.39h4.089l-2.045-10.39Zm.928-2.4 4.089 19.256h-1.784l-.951-5.159h-4.588l-.974 5.16h-1.76l4.065-19.257h1.903Zm12.908 14.953-6.134-14.953h-1.307V57.03h1.569V41.911l6.157 15.12h1.284V37.773h-1.569v14.953Zm8.795 4.303h-1.759v-6.396l-4.351-12.86h1.759l3.471 10.697 3.329-10.697h1.782l-4.231 12.86v6.396Zm-72.186 4.92-.643-1.316h-.467l.904 1.721v1.006h.413v-1.006l.896-1.72h-.463l-.64 1.315Zm3.751.963a.85.85 0 0 0 .325-.358c.078-.156.117-.342.117-.558a1.23 1.23 0 0 0-.117-.556.848.848 0 0 0-.325-.36.936.936 0 0 0-.489-.124.952.952 0 0 0-.492.125.835.835 0 0 0-.325.359 1.257 1.257 0 0 0-.114.556c0 .216.038.402.114.558a.838.838 0 0 0 .325.358.952.952 0 0 0 .492.125c.187 0 .35-.042.49-.125Zm-.489-2.326c.27 0 .506.06.71.179.202.12.36.285.472.497.113.212.17.457.17.734 0 .279-.057.524-.17.736-.112.21-.27.377-.473.496-.203.12-.439.18-.709.18-.27 0-.507-.06-.709-.18a1.249 1.249 0 0 1-.476-.496 1.53 1.53 0 0 1-.17-.736c0-.277.056-.522.17-.734.114-.212.272-.377.476-.497.202-.12.44-.18.71-.18Zm4.212 1.754c0 .238-.057.414-.171.525a.623.623 0 0 1-.46.168c-.195 0-.35-.055-.464-.168-.114-.111-.172-.287-.172-.525v-1.707h-.413v1.703c0 .244.047.445.139.604a.863.863 0 0 0 .374.352c.157.077.333.115.528.115.193 0 .368-.038.528-.115a.881.881 0 0 0 .382-.352c.095-.16.142-.36.142-.604v-1.703h-.413v1.707Zm2.096-.39h.503c.187 0 .324-.046.411-.137a.491.491 0 0 0 .131-.354.474.474 0 0 0-.129-.349c-.086-.088-.225-.13-.417-.13h-.499v.97Zm1.47-.503a.823.823 0 0 1-.135.46.743.743 0 0 1-.419.296l.581 1.157h-.479l-.53-1.099h-.488v1.1h-.413v-2.728h.94c.215 0 .392.036.532.108a.724.724 0 0 1 .31.295c.067.123.101.26.101.411Zm4.161-.491c.2 0 .36.047.48.14a.64.64 0 0 1 .234.379h.46a1.042 1.042 0 0 0-.387-.656c-.202-.155-.463-.233-.783-.233-.27 0-.503.059-.699.179-.197.12-.348.285-.454.497-.107.212-.16.458-.16.738 0 .278.053.523.16.735.106.21.257.376.454.494.196.119.43.178.7.178.32 0 .58-.077.782-.23.203-.153.332-.365.386-.635h-.459a.61.61 0 0 1-.235.362c-.119.089-.279.133-.479.133-.272 0-.488-.093-.646-.277-.159-.184-.238-.438-.238-.76 0-.324.08-.58.238-.766.158-.185.374-.278.646-.278Zm4.118 1.956a.85.85 0 0 0 .325-.358c.078-.156.117-.342.117-.558a1.23 1.23 0 0 0-.117-.556.848.848 0 0 0-.325-.36.936.936 0 0 0-.49-.124.952.952 0 0 0-.491.125.835.835 0 0 0-.325.359 1.257 1.257 0 0 0-.114.556c0 .216.038.402.114.558a.838.838 0 0 0 .325.358.952.952 0 0 0 .492.125c.187 0 .35-.042.489-.125Zm-.49-2.326c.27 0 .507.06.71.179.203.12.36.285.473.497.113.212.17.457.17.734 0 .279-.057.524-.17.736-.112.21-.27.377-.473.496-.203.12-.44.18-.71.18-.27 0-.506-.06-.708-.18a1.249 1.249 0 0 1-.476-.496 1.53 1.53 0 0 1-.171-.736c0-.277.057-.522.17-.734.115-.212.273-.377.477-.497.202-.12.439-.18.709-.18Zm3.964 1.862-.924-1.815h-.487v2.727h.413v-2.01l.838 1.62h.319l.834-1.625v2.015h.413v-2.727h-.486l-.92 1.815Zm3.636-.525c.195 0 .335-.043.419-.127a.468.468 0 0 0 .127-.345.476.476 0 0 0-.127-.352c-.084-.085-.224-.127-.42-.127h-.521v.95h.522Zm.02-1.29c.212 0 .389.035.53.106a.73.73 0 0 1 .313.293.843.843 0 0 1 .104.419.84.84 0 0 1-.1.407.705.705 0 0 1-.31.294c-.14.073-.32.11-.537.11h-.542v1.098h-.413v-2.727h.955Zm2.392 1.733.44-1.242.441 1.242h-.881Zm.218-1.733-1.005 2.727h.436l.234-.666h1.114l.234.666h.437l-.998-2.727h-.452Zm2.984 0 1.368 2.053v-2.054h.413v2.728h-.413l-1.368-2.054v2.054h-.413v-2.728h.413Zm3.976 1.316-.643-1.316h-.467l.904 1.721v1.006h.413v-1.006l.896-1.72h-.463l-.64 1.315Zm4.548-.981h-.807v-.335h2.022v.335h-.802v2.393h-.413v-2.393Zm2.657 1.398.44-1.242.441 1.242h-.881Zm.218-1.733-1.005 2.727h.436l.234-.666h1.114l.234.666h.437l-.998-2.727h-.452Zm4.477 1.566h-.74v-.319h1.157v1.48h-.378l-.035-.4a.977.977 0 0 1-.343.33c-.137.078-.317.117-.538.117-.257 0-.481-.059-.674-.176a1.188 1.188 0 0 1-.448-.49 1.62 1.62 0 0 1-.159-.737c0-.278.054-.524.163-.737.109-.213.265-.38.466-.5s.439-.18.715-.18c.311 0 .571.074.779.224.208.152.343.36.405.624h-.467a.595.595 0 0 0-.246-.342.813.813 0 0 0-.471-.125c-.285 0-.51.091-.674.276-.164.184-.245.44-.245.764 0 .325.08.578.241.76a.813.813 0 0 0 .643.273c.27 0 .473-.077.61-.23.136-.154.216-.357.239-.612Zm2.073-1.566h-.413v2.728h1.652v-.328h-1.239v-2.4Z" clip-rule="evenodd"/></svg>